{"title":"127 Hours 720p XviD BrRip SAFCuk009 {DragonTrG}","uid":6180074,"size":2199555388,"categoryP":"video","categoryS":"hd___movies","magnet":"?xt=urn:btih:14a219afaafe7ee249f89f654229dddaa3027e56&amp;dn=127+Hours+720p+XviD+BrRip+SAFCuk009+%7BDragonTrG%7D&amp;tr=udp%3A%2F%2Ftracker.openbittorrent.com%3A80&amp;tr=udp%3A%2F%2Fopen.demonii.com%3A1337&amp;tr=udp%3A%2F%2Ftracker.coppersurfer.tk%3A6969&amp;tr=udp%3A%2F%2Fexodus.desync.com%3A6969","seeders":0,"leechers":1,"uploader":"SAFCukO09","files":3,"time":1297919838,"description":"Format : AVI\nFormat/Info : Audio Video Interleave\nFormat profile : OpenDML\nFile size : 2.05 GiB\nDuration : 1h 33mn\nOverall bit rate : 3 130 Kbps\nWriting application : Lavf52.47.0\n\nVideo\nID : 0\nFormat : xvid\nCodec ID : xvid\nDuration : 1h 33mn\nBit rate : 2 800 Kbps\nWidth : 1 280 pixels\nHeight : 666 pixels\nDisplay aspect ratio : 1.922\nFrame rate : 25.000 fps\nBits/(Pixel*Frame) : 0.131\nStream size : 1.83 GiB (89%)\n\nAudio\nID : 1\nFormat : AC-3\nFormat/Info : Audio Coding 3\nMode extension : CM (complete main)\nCodec ID : 2000\nDuration : 1h 33mn\nBit rate mode : Constant\nBit rate : 320 Kbps\nChannel(s) : 2 channels\nChannel positions : Front: L R\nSampling rate : 44.1 KHz\nBit depth : 16 bits\nStream size : 214 MiB (10%)\nAlignment : Aligned on interleaves\nInterleave, duration : 35 ms (0.87 video frame)\n\n &lt;a href=&quot;\nhttp://www.imdb.com/title/tt1542344/&quot; rel=&quot;nofollow&quot; target=&quot;_NEW&quot;&gt;\nhttp://www.imdb.com/title/tt1542344/&lt;/a&gt;\n\n\n127 Hours is the true story of mountain climber Aron Ralston's remarkable adventure to save himself after a fallen boulder crashes on his arm and traps him in an isolated canyon in Utah. Over the next five days Ralston examines his life and survives the elements to finally discover he has the courage and the wherewithal to extricate himself by any means necessary, scale a 65 foot wall and hike over eight miles before he is finally rescued. Throughout his journey, Ralston recalls friends, lovers, family, and the two hikers he met before his accident. Will they be the last two people he ever had the chance to meet?\n\n\nUsers: 8.1/10 (31,844 votes) 212 reviews | Critics: 243 reviews Metascore: 82/100 (based on 38 reviews from Metacritic.com)\n\n127 Hours 2010 720p BluRay x264-Felony - Thanks","torrent":{"xt":"urn:btih:14a219afaafe7ee249f89f654229dddaa3027e56","amp;dn":"127+Hours+720p+XviD+BrRip+SAFCuk009+%7BDragonTrG%7D","amp;tr":["udp%3A%2F%2Ftracker.openbittorrent.com%3A80","udp%3A%2F%2Fopen.demonii.com%3A1337","udp%3A%2F%2Ftracker.coppersurfer.tk%3A6969","udp%3A%2F%2Fexodus.desync.com%3A6969"],"infoHash":"14a219afaafe7ee249f89f654229dddaa3027e56","infoHashBuffer":{"type":"Buffer","data":[20,162,25,175,170,254,126,226,73,248,159,101,66,41,221,218,163,2,126,86]},"announce":[],"urlList":[]}}